<svg xmlns="http://www.w3.org/2000/svg" viewBox="0 0 500 500"><g id="freepik--background-simple--inject-344"><path d="M442.55,153.06S375.79,73.22,272.39,54.89,148.7,114.45,114,160.26,40.07,223.08,38.1,289.18,63,389.31,114.67,412.87s104.71,36,156.41,43.19S364,459.34,384.3,416.8s11.13-62.17,34.69-82.46S495.56,221.77,442.55,153.06Z" style="fill:#43B17E"></path><path d="M442.55,153.06S375.79,73.22,272.39,54.89,148.7,114.45,114,160.26,40.07,223.08,38.1,289.18,63,389.31,114.67,412.87s104.71,36,156.41,43.19S364,459.34,384.3,416.8s11.13-62.17,34.69-82.46S495.56,221.77,442.55,153.06Z" style="fill:#fff;opacity:0.7000000000000001"></path></g><g id="freepik--emojis-2--inject-344"><circle cx="451.05" cy="174" r="20.71" transform="translate(-29.36 119.92) rotate(-14.67)" style="fill:#fff;stroke:#263238;stroke-linecap:round;stroke-linejoin:round"></circle><polyline points="445.67 157.6 450.32 162.01 441.74 160" style="fill:none;stroke:#263238;stroke-linecap:round;stroke-linejoin:round;stroke-width:2px"></polyline><polyline points="467.57 168.35 460.95 167.23 467.44 172.62" style="fill:none;stroke:#263238;stroke-linecap:round;stroke-linejoin:round;stroke-width:2px"></polyline><path d="M438.74,163.18c-2.08,9,.69,17.6,7.38,20.88s15.2.2,21-6.93l-2.27-1.62A79.71,79.71,0,0,0,441,163.86Z" style="fill:#263238;stroke:#263238;stroke-linecap:round;stroke-linejoin:round"></path><path d="M458.14,184a20.76,20.76,0,0,0-19.32-9.36A13.58,13.58,0,0,0,458.14,184Z" style="fill:#43B17E;stroke:#263238;stroke-linecap:round;stroke-linejoin:round"></path><path d="M145.53,44.32a21.69,21.69,0,1,1,6.64,29.95A21.69,21.69,0,0,1,145.53,44.32Z" style="fill:#fff;stroke:#263238;stroke-linecap:round;stroke-linejoin:round"></path><path d="M185.17,51.51l-.48-1.06a4.7,4.7,0,0,0-5.41-2.69h0" style="fill:none;stroke:#263238;stroke-linecap:round;stroke-linejoin:round;stroke-width:2px"></path><path d="M167.61,44.29l-.81-.83a4.71,4.71,0,0,0-6-.62h0" style="fill:none;stroke:#263238;stroke-linecap:round;stroke-linejoin:round;stroke-width:2px"></path><path d="M159.16,47.78c-1.38,2.16-1.25,4.69.27,5.66s3.87,0,5.25-2.14,1.25-4.69-.28-5.66S160.53,45.63,159.16,47.78Z" style="fill:#263238;stroke:#263238;stroke-linecap:round;stroke-linejoin:round"></path><path d="M177.47,54.58c-.32,2.54.89,4.77,2.68,5s3.5-1.66,3.81-4.19-.89-4.77-2.68-5S177.78,52.05,177.47,54.58Z" style="fill:#263238;stroke:#263238;stroke-linecap:round;stroke-linejoin:round"></path><path d="M165.53,60.74c-.59,2.23.3,4.4,2,4.84s3.53-1,4.12-3.23-.31-4.4-2-4.84S166.11,58.51,165.53,60.74Z" style="fill:#263238;stroke:#263238;stroke-linecap:round;stroke-linejoin:round"></path><circle cx="372.58" cy="358.65" r="21.69" transform="translate(-7.7 8.17) rotate(-1.24)" style="fill:#fff;stroke:#263238;stroke-linecap:round;stroke-linejoin:round"></circle><path d="M358.44,342.06l1-.55a4.72,4.72,0,0,1,5.93,1.18h0" style="fill:none;stroke:#263238;stroke-linecap:round;stroke-linejoin:round;stroke-width:2px"></path><path d="M376.74,347.09l1.15-.16a4.72,4.72,0,0,1,5.14,3.19h0" style="fill:none;stroke:#263238;stroke-linecap:round;stroke-linejoin:round;stroke-width:2px"></path><path d="M381.29,355c-.24,2.55-1.88,4.48-3.68,4.31s-3.07-2.36-2.84-4.9,1.88-4.48,3.68-4.31S381.52,352.48,381.29,355Z" style="fill:#263238;stroke:#263238;stroke-linecap:round;stroke-linejoin:round"></path><path d="M362.64,349.2c-1.3,2.19-3.62,3.23-5.17,2.3s-1.76-3.45-.45-5.65,3.62-3.22,5.17-2.3S364,347,362.64,349.2Z" style="fill:#263238;stroke:#263238;stroke-linecap:round;stroke-linejoin:round"></path><path d="M368.32,361.38c-.9,2.12-2.93,3.29-4.54,2.61s-2.18-3-1.28-5.08,2.93-3.29,4.54-2.61S369.22,359.25,368.32,361.38Z" style="fill:#263238;stroke:#263238;stroke-linecap:round;stroke-linejoin:round"></path><circle cx="333.67" cy="56.63" r="30.06" transform="translate(6.3 142.5) rotate(-24.33)" style="fill:#fff;stroke:#263238;stroke-linecap:round;stroke-linejoin:round"></circle><path d="M323.82,63.73l2.11-.54A8.83,8.83,0,0,1,336.2,68h0" style="fill:none;stroke:#263238;stroke-linecap:round;stroke-linejoin:round;stroke-width:2px"></path><path d="M325.29,49.36c-.84,2.42-3.16,3.82-5.18,3.12s-3-3.23-2.13-5.65,3.15-3.82,5.17-3.12S326.13,46.94,325.29,49.36Z" style="fill:#263238;stroke:#263238;stroke-linecap:round;stroke-linejoin:round"></path><path d="M352.35,58.73c-.84,2.43-3.16,3.83-5.18,3.13s-3-3.24-2.14-5.66,3.16-3.82,5.18-3.12S353.19,56.31,352.35,58.73Z" style="fill:#263238;stroke:#263238;stroke-linecap:round;stroke-linejoin:round"></path><path d="M327.43,40.23s-3.62-4.4-8.28,0" style="fill:none;stroke:#263238;stroke-linecap:round;stroke-linejoin:round;stroke-width:2px"></path><path d="M348.86,47.65s5.57-1.21,6.52,5.12" style="fill:none;stroke:#263238;stroke-linecap:round;stroke-linejoin:round;stroke-width:2px"></path><circle cx="84.77" cy="112.87" r="22.79" transform="translate(-53.4 141.76) rotate(-64.9)" style="fill:#fff;stroke:#263238;stroke-linecap:round;stroke-linejoin:round"></circle><path d="M73.13,97.77c-3-2.42-7.35-2-9.29.42a5.57,5.57,0,0,0-.21,6.19,5.55,5.55,0,0,0-6,1.48c-1.94,2.39-1.49,6.76,1.48,9.18s6.39,1.61,9.54,1.08c2.36-.39,5.1-1.27,7.46-1.66-.13-3.17.13-6.81,0-10C76,102,75.46,99.65,73.13,97.77Z" style="fill:#43B17E;stroke:#263238;stroke-linecap:round;stroke-linejoin:round"></path><path d="M99,93.53c-.3-3.39-3.3-5.9-6-5.66A5,5,0,0,0,89,91.56a5,5,0,0,0-4.66-2.92c-2.72.24-5.23,3.24-4.93,6.63s2.92,5.06,5.21,6.74c1.7,1.26,4,2.47,5.66,3.72,1.94-2,4.43-4.12,6.37-6.16A7.36,7.36,0,0,0,99,93.53Z" style="fill:#43B17E;stroke:#263238;stroke-linecap:round;stroke-linejoin:round"></path><path d="M75.72,117.88a49.13,49.13,0,0,1,19-6.85s4.58,10-6,13.73S75.72,117.88,75.72,117.88Z" style="fill:#263238;stroke:#263238;stroke-linecap:round;stroke-linejoin:round"></path><path d="M91.05,121.45c.25.91-1.33,2.12-3.51,2.7s-4.16.31-4.4-.6,1.34-2.11,3.52-2.69S90.81,120.54,91.05,121.45Z" style="fill:#fff;stroke:#263238;stroke-linecap:round;stroke-linejoin:round"></path></g><g id="freepik--emojis-1--inject-344"><circle cx="263.24" cy="134.3" r="45.23" style="fill:#fff;stroke:#263238;stroke-linecap:round;stroke-linejoin:round"></circle><polyline points="236.91 107.33 250.27 111.51 231.5 115.82" style="fill:none;stroke:#263238;stroke-linecap:round;stroke-linejoin:round;stroke-width:2px"></polyline><polyline points="290.17 107.33 276.13 111.51 294.02 115.82" style="fill:none;stroke:#263238;stroke-linecap:round;stroke-linejoin:round;stroke-width:2px"></polyline><path d="M228.69,125c4.55,19.58,18.3,33.81,34.55,33.81s30-14.23,34.55-33.81l-6-1a173.84,173.84,0,0,0-57.93.12Z" style="fill:#263238;stroke:#263238;stroke-linecap:round;stroke-linejoin:round"></path><path d="M286.79,147.17c-6-4-14.18-6.41-23.27-6.41-9.26,0-17.62,2.56-23.61,6.65,6.3,7.07,14.43,11.36,23.33,11.36S280.46,154.39,286.79,147.17Z" style="fill:#43B17E;stroke:#263238;stroke-linecap:round;stroke-linejoin:round"></path><circle cx="359.43" cy="157.88" r="46.28" transform="translate(79.14 432.76) rotate(-68.15)" style="fill:#fff;stroke:#263238;stroke-linecap:round;stroke-linejoin:round"></circle><path d="M336.93,126l2.07-1.36A10,10,0,0,1,351.83,126h0" style="fill:none;stroke:#263238;stroke-linecap:round;stroke-linejoin:round;stroke-width:2px"></path><path d="M376.8,133.15l2.42-.56a10.06,10.06,0,0,1,11.54,5.78h0" style="fill:none;stroke:#263238;stroke-linecap:round;stroke-linejoin:round;stroke-width:2px"></path><path d="M388,149.13c0,5.45-3.13,9.87-7,9.87s-7-4.42-7-9.87,3.12-9.87,7-9.87S388,143.68,388,149.13Z" style="fill:#263238;stroke:#263238;stroke-linecap:round;stroke-linejoin:round"></path><path d="M347.26,140.37c-2.34,4.92-7.07,7.57-10.55,5.91s-4.4-7-2-11.92,7.07-7.56,10.55-5.9S349.61,135.45,347.26,140.37Z" style="fill:#263238;stroke:#263238;stroke-linecap:round;stroke-linejoin:round"></path><path d="M361.69,165.15c-1.5,4.69-5.59,7.57-9.14,6.43s-5.2-5.85-3.7-10.54,5.59-7.56,9.13-6.43S363.19,160.47,361.69,165.15Z" style="fill:#263238;stroke:#263238;stroke-linecap:round;stroke-linejoin:round"></path><circle cx="168.48" cy="152.45" r="46.14" style="fill:#fff;stroke:#263238;stroke-linecap:round;stroke-linejoin:round"></circle><path d="M157,177.87c0,1.47-1.95,2.66-4.35,2.66s-4.35-1.19-4.35-2.66,1.95-2.67,4.35-2.67S157,176.4,157,177.87Z" style="fill:#263238;stroke:#263238;stroke-linecap:round;stroke-linejoin:round"></path><path d="M197.75,177.87c0,1.47-1.95,2.66-4.35,2.66s-4.35-1.19-4.35-2.66,1.95-2.67,4.35-2.67S197.75,176.4,197.75,177.87Z" style="fill:#263238;stroke:#263238;stroke-linecap:round;stroke-linejoin:round"></path><path d="M142.14,169.7a5.73,5.73,0,0,0,2.28,2.29c1.53.76,12.58,2.66,18.68,2.66" style="fill:none;stroke:#263238;stroke-linecap:round;stroke-linejoin:round;stroke-width:2px"></path><path d="M204.21,169.7a5.8,5.8,0,0,1-2.29,2.29c-1.52.76-12.58,2.66-18.68,2.66" style="fill:none;stroke:#263238;stroke-linecap:round;stroke-linejoin:round;stroke-width:2px"></path><path d="M163,188a26.24,26.24,0,0,1,10.54-2.42c8.21-.21,11.27,2.63,10,3.08C179.34,190.11,157.1,190.6,163,188Z" style="fill:#263238;stroke:#263238;stroke-linecap:round;stroke-linejoin:round"></path><circle cx="122.62" cy="254.23" r="45.77" transform="translate(-159.13 271.21) rotate(-67.7)" style="fill:#fff;stroke:#263238;stroke-linecap:round;stroke-linejoin:round"></circle><path d="M119.1,272.38l1.77-2.8a13.46,13.46,0,0,1,16.43-5.35h0" style="fill:none;stroke:#263238;stroke-linecap:round;stroke-linejoin:round;stroke-width:2px"></path><ellipse cx="100.36" cy="257.32" rx="5.89" ry="7.07" transform="translate(-96.44 63.52) rotate(-24.13)" style="fill:#263238;stroke:#263238;stroke-linecap:round;stroke-linejoin:round"></ellipse><path d="M145.53,237.09c1.6,3.56.49,7.53-2.48,8.86s-6.68-.48-8.27-4-.49-7.53,2.48-8.86S143.94,233.52,145.53,237.09Z" style="fill:#263238;stroke:#263238;stroke-linecap:round;stroke-linejoin:round"></path><path d="M98.59,242.55s-8.61-1.1-9.2,8.62" style="fill:none;stroke:#263238;stroke-linecap:round;stroke-linejoin:round;stroke-width:2px"></path><path d="M130.11,228.43s4.9-7.16,12.56-1.13" style="fill:none;stroke:#263238;stroke-linecap:round;stroke-linejoin:round;stroke-width:2px"></path><circle cx="384.3" cy="261.79" r="45.74" transform="translate(-71.48 169.65) rotate(-22.83)" style="fill:#fff;stroke:#263238;stroke-linecap:round;stroke-linejoin:round"></circle><path d="M380.48,223.71c-2.51-7.27-10.46-11.13-16.29-9.12-4.08,1.41-6.61,5.51-6.92,10.32-3.22-3.6-7.74-5.26-11.81-3.85-5.84,2-9.71,9.95-7.2,17.23,2.59,7.49,9.18,9.51,15.11,12,4.43,1.82,10,3.24,14.47,5.06,3.13-5.53,7.45-11.47,10.58-17C380.92,233.9,382.44,229.39,380.48,223.71Z" style="fill:#43B17E;stroke:#263238;stroke-linecap:round;stroke-linejoin:round"></path><path d="M429.12,243.94c3.08-6.09.63-13.54-4.26-16-3.41-1.73-7.59-.81-10.85,2,.31-4.28-1.43-8.18-4.84-9.91-4.89-2.47-12.34,0-15.43,6.06-3.17,6.28-.38,11.73,1.73,17,1.57,3.95,4.13,8.4,5.71,12.35,5.46-1.42,11.91-2.34,17.38-3.76C422.9,250.52,426.72,248.7,429.12,243.94Z" style="fill:#43B17E;stroke:#263238;stroke-linecap:round;stroke-linejoin:round"></path><path d="M363.57,260.73a98.68,98.68,0,0,1,39.71,8.51s-2.83,22-24.82,17S363.57,260.73,363.57,260.73Z" style="fill:#263238;stroke:#263238;stroke-linecap:round;stroke-linejoin:round"></path><path d="M385.92,283.08c-.55,1.8-4.52,2.19-8.86.86s-7.4-3.87-6.85-5.67,4.52-2.2,8.86-.87S386.47,281.27,385.92,283.08Z" style="fill:#43B17E;stroke:#263238;stroke-linecap:round;stroke-linejoin:round"></path></g><g id="freepik--Character--inject-344"><path d="M324.19,220.12s-74.26-10-132.39.93l16.8,141.37,97.11.32,24.86-138.57S327.55,220.12,324.19,220.12Z" style="fill:#c9c9c9;stroke:#263238;stroke-linecap:round;stroke-linejoin:round"></path><path d="M217.34,360.86S200.2,225.11,197.18,220.43s-12.43-22.16-23.86-14.67,24.87,155.73,24.87,155.73Z" style="fill:#c9c9c9;stroke:#263238;stroke-linecap:round;stroke-linejoin:round"></path><path d="M326.83,303.44s17.16-73,18.41-84.57-9.68-16.85-15-14.05-6.55,1.88-11.86,33.09-12.17,112.66-11.55,114.53,4.06,3.12,5.93,3.12S326.83,303.44,326.83,303.44Z" style="fill:#c9c9c9;stroke:#263238;stroke-linecap:round;stroke-linejoin:round"></path><path d="M196.23,358.68s-2.81-44.32-7.8-54-10.92-12.48-23.09-12.79-19.67,9.67-17.17,16.54,15.61,10.29,17.79,15.29,15,97,15,97Z" style="fill:#c9c9c9;stroke:#263238;stroke-linecap:round;stroke-linejoin:round"></path><path d="M192.17,358.68s-4-47.59-7.79-53.7-8.28-7.89-17.52-8.09-14.91,6.12-13,10.45,11.84,6.51,13.5,9.67,11.36,61.33,11.36,61.33Z" style="fill:#c9c9c9;stroke:#263238;stroke-linecap:round;stroke-linejoin:round"></path><path d="M300.92,358.68s2.81-44.32,7.81-54,10.92-12.48,23.09-12.79,19.66,9.67,17.16,16.54-15.6,10.29-17.79,15.29-15,97-15,97Z" style="fill:#c9c9c9;stroke:#263238;stroke-linecap:round;stroke-linejoin:round"></path><path d="M305,358.68s4-47.59,7.79-53.7,8.29-7.89,17.52-8.09,14.92,6.12,13,10.45-11.83,6.51-13.49,9.67-11.37,61.33-11.37,61.33Z" style="fill:#c9c9c9;stroke:#263238;stroke-linecap:round;stroke-linejoin:round"></path><path d="M292.12,341.83s1.51,1.74-1.4,5.05-11.19,2.49-11.19,2.49l.83-23S291.44,337.81,292.12,341.83Z" style="fill:#263238;stroke:#263238;stroke-linecap:round;stroke-linejoin:round"></path><path d="M275.88,330s9.43,5.07,10.06,7-.56,10.7-1.77,14.26-6.39,6.46-9.9,7.17-7.25-.51-10.3-6.28-.76-27.48,3.1-27.78S275.88,330,275.88,330Z" style="fill:#43B17E;stroke:#263238;stroke-linecap:round;stroke-linejoin:round"></path><path d="M266.86,234.2s.76,8.3,2,12.6a22.43,22.43,0,0,0,4.08,7.58s12.36,1.44,17.74,4.11,5.89,3.48,7.08,8.36,9.16,49.93,6.89,54.95-18.24-5.11-18.24-5.11l5.72,25.14s-4.79-5.52-10.15-8.39-37.21-19.09-55.55-22.87-25.55-4.86-25.55-4.86,8-37.22,10.51-43.37,5-5.4,17.35-6.65,15.15-.09,15.3-2.19-1.72-11.05-1.72-11.05S241.67,232.43,266.86,234.2Z" style="fill:#fff;stroke:#263238;stroke-linecap:round;stroke-linejoin:round"></path><path d="M280.4,298.24l21.31-9.1c-1.67-10.61-3.44-20.18-4-22.29-1.19-4.88-1.71-5.68-7.08-8.36s-17.74-4.11-17.74-4.11a22.43,22.43,0,0,1-4.08-7.58c-1.23-4.3-2-12.6-2-12.6-25.19-1.77-24.55,8.25-24.55,8.25s1.87,9,1.72,11.05-2.94.95-15.3,2.19-14.81.5-17.35,6.65-10.51,43.37-10.51,43.37,7.21,1.08,25.55,4.86,50.19,20,55.55,22.87,10.15,8.39,10.15,8.39l-5.72-25.14s2.13,1.35,5,2.82Z" style="fill:#999;stroke:#263238;stroke-linecap:round;stroke-linejoin:round"></path><path d="M283.14,341.39s-2.17-18.37-27.93-34-37-22.53-50-7,12.21,44.77,24.11,52.89,18.42,5.32,25.85,6,22.74,1.21,25.66-4.92" style="fill:#43B17E;stroke:#263238;stroke-linecap:round;stroke-linejoin:round"></path><path d="M272.64,233.54s2.85,3.37,5.91,6.27,9.62,16,2.25,22.6-15.18,3.15-18-14.69S271.56,232.4,272.64,233.54Z" style="fill:#263238;stroke:#263238;stroke-linecap:round;stroke-linejoin:round"></path><path d="M284.44,268s-3.8,15.84-4,30.21l28.89-4.5s-5.52-22.44-9.52-28.28-13.22-8.41-14.42-7.72" style="fill:#999;stroke:#263238;stroke-linecap:round;stroke-linejoin:round"></path><path d="M258.24,267c4.8-.43,10.8-8.15,14.22-13.17a22.2,22.2,0,0,1-3.61-7c-1.23-4.3-2-12.6-2-12.6-25.19-1.77-24.55,8.25-24.55,8.25s1.87,9,1.72,11.05C244,253.5,251.1,267.61,258.24,267Z" style="fill:#fff;stroke:#263238;stroke-linecap:round;stroke-linejoin:round"></path><path d="M267.19,224s2.29-4.5,5.31-2.5,3.53,8.85.14,12-6,3.52-6,3.52Z" style="fill:#fff;stroke:#263238;stroke-linecap:round;stroke-linejoin:round"></path><path d="M231,222.68s-3.29-2.34-4.57,2.17,7,9.69,7,9.69Z" style="fill:#fff;stroke:#263238;stroke-linecap:round;stroke-linejoin:round"></path><path d="M234.87,195.33s-4.41,2.76-5.6,11.5,2.7,27.23,4.55,30.81,10.31,17.21,16,18.57,9.68-1.24,12.06-5.1,5-8.09,6.52-13.74,3-25.87.17-35.27-10.06-12.41-18.88-12.45S235.13,194.39,234.87,195.33Z" style="fill:#fff;stroke:#263238;stroke-linecap:round;stroke-linejoin:round"></path><path d="M268.53,202.1c-2.79-9.4-10.06-12.41-18.88-12.45s-14.52,4.74-14.78,5.68c0,0-4.41,2.76-5.6,11.5a50.42,50.42,0,0,0,.31,11.65c1.67-1.3,0,2,0,2s7.65,3.28,13.77-2.41a96.76,96.76,0,0,0,11.31-13s2.73,12.62,9,16.12,6.33.95,6.33.95l0,.05C270.3,215,270,207,268.53,202.1Z" style="fill:#263238;stroke:#263238;stroke-linecap:round;stroke-linejoin:round"></path><path d="M238,233.33a4.47,4.47,0,0,1,5.45-1.16" style="fill:none;stroke:#263238;stroke-linecap:round;stroke-linejoin:round"></path><path d="M254.38,231.6s2.49-2.7,6.29.63" style="fill:none;stroke:#263238;stroke-linecap:round;stroke-linejoin:round"></path><path d="M236.21,228.22s3.7-3.58,7.63-2.15" style="fill:none;stroke:#263238;stroke-linecap:round;stroke-linejoin:round"></path><path d="M253.05,225.94s3.82-2.41,7.76,1.51" style="fill:none;stroke:#263238;stroke-linecap:round;stroke-linejoin:round"></path><path d="M246.85,240.66a2.67,2.67,0,0,0,2.94,1.74c2.14-.43,2.6-1.54,2.6-1.54" style="fill:none;stroke:#263238;stroke-linecap:round;stroke-linejoin:round"></path><path d="M245.15,245.72s7.27,3,11-1.53" style="fill:none;stroke:#263238;stroke-linecap:round;stroke-linejoin:round"></path><path d="M306,312.72a9.75,9.75,0,0,1,1.13,4.6c0,2.82-.33,6.29-1.87,8.74-1.72,2.76-9.68,4.12-21-6.26s-28.14-28.05-28.14-28.05l-5-3.23s-6.88-3.16-9.39-5.64-3.33-4.45-2.45-6.12,5.32,3.44,7.26,3.2,2-1.21,1.34-2.79-2.39-4.19-4.12-4.12-4.26.66-5.53-.39,1.72-2.75,3.47-3,9.65,1.83,9.65,1.83a11.31,11.31,0,0,0-2-2.05,9.38,9.38,0,0,0-5.5-1c-1,.31-5-2.27-3.4-3.5s4.72-1.59,6.19-.72,9,2.93,9,2.93-6.11-5.8-8.56-6.54-3-3.28-.55-3.11,6.91,2.78,9.28,4.48,6.63,6.61,6.63,6.61-.75-5.62.13-7.28,3.15-1.12,3.19,1,.18,8.45.56,11.16-3,13.21-3,13.21S300.42,306,303.3,309A17.85,17.85,0,0,1,306,312.72Z" style="fill:#fff;stroke:#263238;stroke-linecap:round;stroke-linejoin:round"></path><line x1="262.53" y1="268.61" x2="260.7" y2="275.57" style="fill:#fff;stroke:#263238;stroke-linecap:round;stroke-linejoin:round"></line><path d="M255.73,267.17a6.28,6.28,0,0,1,1.29,3.54" style="fill:#fff;stroke:#263238;stroke-linecap:round;stroke-linejoin:round"></path><path d="M259,277.57s-2.89,2.86-2.7,5.75" style="fill:none;stroke:#263238;stroke-linecap:round;stroke-linejoin:round"></path><path d="M225,257.62l6.2,24.89a3.22,3.22,0,0,0,3.26,2.44l12.15-.53a3.21,3.21,0,0,0,3-3.95l-5.89-25a3.21,3.21,0,0,0-3.29-2.48l-12.47.63A3.22,3.22,0,0,0,225,257.62Z" style="fill:#43B17E;stroke:#263238;stroke-linecap:round;stroke-linejoin:round"></path><path d="M221.55,289.71a23.41,23.41,0,0,0,1.17-8.55c-.23-4.81,1.6-6.41,2.05-10s-1-7.17.87-7,2.6,6.7,2.33,7.83a37.33,37.33,0,0,0,0,5.56s6.66-13,8.14-15,3.78-4.72,4.72-4.47-.58,5.52-1.91,8.12-4.6,11-4.6,11,7.92-6.35,9.62-8.72,2.05-4.66,2.79-4.22,1.14,3,.18,5.57-7.52,11.56-7.52,11.56,5.83-3.81,7.08-5.26,1.72-2.56,2.66-2.31.77,2.74-.54,4.95c0,0,.38-.13,1,1.72s-3,6.78-8.84,11.16-9.29,6.83-9.29,6.83Z" style="fill:#fff;stroke:#263238;stroke-linecap:round;stroke-linejoin:round"></path><line x1="248.59" y1="278.75" x2="241.15" y2="286.48" style="fill:none;stroke:#263238;stroke-linecap:round;stroke-linejoin:round"></line><path d="M177.65,384.27v54.19a6.35,6.35,0,0,0,6.36,6.35H311.42a6.35,6.35,0,0,0,6.36-6.35V381.77H177Z" style="fill:#c9c9c9;stroke:#263238;stroke-linecap:round;stroke-linejoin:round"></path><path d="M190,354.62s61.33.63,88.17-.93,44-2.19,45.57,5.61,1.87,24-.63,28.09-117.34.94-120.15,1.56-25,2.5-28.71-3.12-4.37-27.15,1.87-32.14S190,354.62,190,354.62Z" style="fill:#c9c9c9;stroke:#263238;stroke-linecap:round;stroke-linejoin:round"></path><path d="M159.84,341.2s6.33,13.67,6.86,14.28,9.51-15.25,9.51-15.25S163,337.58,159.84,341.2Z" style="fill:#263238;stroke:#263238;stroke-linecap:round;stroke-linejoin:round"></path><path d="M169.94,344.78s-21.88,41.43-24,44.54S110.23,406,110.53,410s11.21,9.61,21.63,8.81,22.78-13.18,22.78-13.18l5-14L188.49,362S175.42,345.93,169.94,344.78Z" style="fill:#fff;stroke:#263238;stroke-linecap:round;stroke-linejoin:round"></path><path d="M154.94,405.67l1.41-3.94c-10.36,8-24.79,11.9-24.79,11.9a48.26,48.26,0,0,0-3.13-7.32,16.45,16.45,0,0,0-5.09-5c-7,3.6-12.94,7-12.81,8.71.29,4,11.21,9.61,21.63,8.81S154.94,405.67,154.94,405.67Z" style="fill:#263238;stroke:#263238;stroke-linecap:round;stroke-linejoin:round"></path><path d="M231.49,298.46s-11.05-9.4-17.09-10.79-12.06-.26-18,7.38a80.49,80.49,0,0,0-9.63,17l-27,29.18A56.6,56.6,0,0,1,172,348.38c6.74,5.07,16.1,16.66,16.1,16.66l25.32-30.26s22.09-3.25,22.12-9.19-3.14-15.37-3.14-15.37" style="fill:#43B17E;stroke:#263238;stroke-linecap:round;stroke-linejoin:round"></path><path d="M229.78,394s0,38.54.92,41.68S245,453,245,453s9.87,9.7,3,11.91-12.14.87-18.46-4.75-9.61-10.64-9.44-15.81.36-5.15-.2-8.07-15.38-37.89-15.38-37.89S223.3,399,229.78,394Z" style="fill:#fff;stroke:#263238;stroke-linecap:round;stroke-linejoin:round"></path><path d="M235.54,454.27a28.79,28.79,0,0,0-3.91,3.76,127.31,127.31,0,0,1-11.5-12.91c.15,4.91,3.42,9.72,9.43,15.06,6.32,5.62,11.6,6.95,18.46,4.75S245,453,245,453,238.8,451.43,235.54,454.27Z" style="fill:#263238;stroke:#263238;stroke-linecap:round;stroke-linejoin:round"></path><path d="M247.49,351.94s-11.82-17.33-20.42-20.61-33.61,14.52-37.1,23.29,6.17,18.65,6.17,18.65l.25,23.8s9.37,5.83,17.66,5.26,18.73-4.63,18.73-4.63,7.15-19.83,7.29-30.18-5.33-22.42-5.33-22.42" style="fill:#43B17E;stroke:#263238;stroke-linecap:round;stroke-linejoin:round"></path><polyline points="229.59 220.49 230.03 216.77 251.6 202.83" style="fill:#263238;stroke:#263238;stroke-linecap:round;stroke-linejoin:round"></polyline></g></svg>